M48
;DRILL file {KiCad 4.0.7} date 08/12/26 16:49:24
;FORMAT={-:-/ absolute / inch / decimal}
FMAT,2
INCH,TZ
T1C0.016
T2C0.024
T3C0.031
T4C0.035
T5C0.039
%
G90
G05
M72
T1
X4.95Y-2.65
T2
X6.5Y-3.2
X6.55Y-3.15
X6.55Y-3.25
T3
X4.75Y-3.35
X4.75Y-3.65
X4.75Y-3.9
X4.75Y-4.2
X4.95Y-2.25
X4.95Y-2.55
X4.95Y-2.65
X4.95Y-2.95
X5.Y-3.35
X5.Y-3.65
X5.Y-4.05
X5.05Y-3.15
X5.2Y-2.6
X5.2Y-2.7
X5.2Y-2.8
X5.2Y-2.9
X5.2Y-3.4
X5.2Y-3.5
X5.2Y-3.6
X5.2Y-3.7
X5.2469Y-3.15
X5.2531Y-2.35
X5.2992Y-4.05
X5.45Y-2.35
X5.5Y-2.6
X5.5Y-2.7
X5.5Y-2.8
X5.5Y-2.9
X5.5Y-3.4
X5.5Y-3.5
X5.5Y-3.6
X5.5Y-3.7
X5.65Y-2.9
X5.65Y-3.2
X5.65Y-3.4
X5.65Y-3.7
X5.9Y-2.9
X5.9Y-3.2
X5.9Y-3.4
X5.9Y-3.7
X6.1Y-3.4
X6.1Y-3.7
T4
X6.2Y-3.05
X6.2Y-3.15
T5
X4.95Y-1.95
X5.05Y-1.95
X5.15Y-1.95
X6.2Y-2.75
X6.3Y-2.75
X6.55Y-2.75
X6.55Y-2.85
T0
M30
